<?xml version="1.0" standalone="no"?>
<!DOCTYPE svg PUBLIC "-//W3C//DTD SVG 20010904//EN"
 "http://www.w3.org/TR/2001/REC-SVG-20010904/DTD/svg10.dtd">
<svg version="1.0" xmlns="http://www.w3.org/2000/svg"
 width="700.000000pt" height="700.000000pt" viewBox="0 0 700.000000 700.000000"
 preserveAspectRatio="xMidYMid meet">
<metadata>
Created by potrace 1.14, written by Peter Selinger 2001-2017
</metadata>
<g transform="translate(0.000000,700.000000) scale(0.100000,-0.100000)"
fill="#000000" stroke="none">
<path d="M3255 6724 c-510 -52 -916 -173 -1308 -390 -636 -351 -1115 -875
-1413 -1544 -81 -182 -84 -191 -71 -183 6 4 66 44 132 88 66 45 149 98 185
117 237 129 547 193 815 168 375 -34 667 -171 931 -434 177 -178 290 -359 365
-588 31 -96 69 -291 69 -358 0 -46 40 -100 148 -202 330 -310 811 -379 1165
-166 121 73 171 114 420 351 279 266 375 341 544 425 197 99 415 141 644 122
212 -17 408 -84 585 -199 76 -49 121 -84 246 -189 19 -16 19 -20 -13 213 -141
1004 -746 1880 -1644 2377 -339 188 -727 315 -1140 374 -105 14 -568 27 -660
18z"/>
<path d="M1326 4709 c-512 -71 -908 -426 -1034 -929 -23 -95 -26 -123 -25
-285 0 -160 3 -191 25 -275 36 -134 81 -245 138 -340 319 -530 977 -740 1541
-491 250 110 471 322 594 568 89 178 126 340 126 549 0 313 -111 594 -326 822
-233 248 -515 375 -855 387 -63 2 -146 0 -184 -6z"/>
<path d="M5667 3879 c-173 -18 -345 -89 -498 -203 -47 -36 -171 -147 -275
-246 -292 -280 -404 -369 -566 -451 -271 -136 -599 -156 -903 -55 -162 54
-285 123 -425 235 l-64 52 -27 -93 c-49 -173 -102 -290 -196 -433 -214 -325
-527 -540 -918 -631 -109 -25 -137 -28 -315 -28 -164 0 -211 3 -297 22 -214
46 -377 119 -586 260 -77 51 -141 92 -143 89 -4 -4 9 -35 103 -242 302 -666
845 -1225 1508 -1550 437 -215 855 -318 1345 -332 398 -11 739 39 1105 161
760 254 1373 752 1784 1449 230 393 383 877 426 1354 l6 73 -53 77 c-29 43
-93 118 -143 168 -188 189 -397 294 -645 325 -93 11 -110 11 -223 -1z"/>
</g>
</svg>
